<svg width="97" height="17" viewBox="0 0 97 17" fill="none" xmlns="http://www.w3.org/2000/svg">
<path d="M11.381 7.927C11.381 7.965 11.362 8.231 11.324 8.725H3.591C3.73033 9.35833 4.05967 9.85867 4.579 10.226C5.09833 10.5933 5.74433 10.777 6.517 10.777C7.049 10.777 7.51767 10.701 7.923 10.549C8.341 10.3843 8.72733 10.131 9.082 9.789L10.659 11.499C9.69633 12.601 8.29033 13.152 6.441 13.152C5.28833 13.152 4.26867 12.9303 3.382 12.487C2.49533 12.031 1.81133 11.404 1.33 10.606C0.848667 9.808 0.608 8.90233 0.608 7.889C0.608 6.88833 0.842333 5.989 1.311 5.191C1.79233 4.38033 2.44467 3.75333 3.268 3.31C4.104 2.854 5.035 2.626 6.061 2.626C7.06167 2.626 7.96733 2.84133 8.778 3.272C9.58867 3.70267 10.222 4.32333 10.678 5.134C11.1467 5.932 11.381 6.863 11.381 7.927ZM6.08 4.868C5.40867 4.868 4.845 5.058 4.389 5.438C3.933 5.818 3.65433 6.33733 3.553 6.996H8.588C8.48667 6.35 8.208 5.837 7.752 5.457C7.296 5.06433 6.73867 4.868 6.08 4.868ZM23.3148 2.778L19.0018 13H15.9428L11.6488 2.778H14.7078L17.5388 9.732L20.4648 2.778H23.3148ZM34.2589 7.927C34.2589 7.965 34.2399 8.231 34.2019 8.725H26.4689C26.6083 9.35833 26.9376 9.85867 27.4569 10.226C27.9763 10.5933 28.6223 10.777 29.3949 10.777C29.9269 10.777 30.3956 10.701 30.8009 10.549C31.2189 10.3843 31.6053 10.131 31.9599 9.789L33.5369 11.499C32.5743 12.601 31.1683 13.152 29.3189 13.152C28.1663 13.152 27.1466 12.9303 26.2599 12.487C25.3733 12.031 24.6893 11.404 24.2079 10.606C23.7266 9.808 23.4859 8.90233 23.4859 7.889C23.4859 6.88833 23.7203 5.989 24.1889 5.191C24.6703 4.38033 25.3226 3.75333 26.1459 3.31C26.9819 2.854 27.9129 2.626 28.9389 2.626C29.9396 2.626 30.8453 2.84133 31.6559 3.272C32.4666 3.70267 33.0999 4.32333 33.5559 5.134C34.0246 5.932 34.2589 6.863 34.2589 7.927ZM28.9579 4.868C28.2866 4.868 27.7229 5.058 27.2669 5.438C26.8109 5.818 26.5323 6.33733 26.4309 6.996H31.4659C31.3646 6.35 31.0859 5.837 30.6299 5.457C30.1739 5.06433 29.6166 4.868 28.9579 4.868ZM39.0633 4.127C39.4179 3.633 39.8929 3.25933 40.4883 3.006C41.0963 2.75267 41.7929 2.626 42.5783 2.626V5.362C42.2489 5.33667 42.0273 5.324 41.9133 5.324C41.0646 5.324 40.3996 5.56467 39.9183 6.046C39.4369 6.51467 39.1963 7.224 39.1963 8.174V13H36.2323V2.778H39.0633V4.127ZM54.8392 2.778L50.2222 13.627C49.7535 14.805 49.1709 15.6347 48.4742 16.116C47.7902 16.5973 46.9605 16.838 45.9852 16.838C45.4532 16.838 44.9275 16.7557 44.4082 16.591C43.8889 16.4263 43.4645 16.1983 43.1352 15.907L44.2182 13.798C44.4462 14.0007 44.7059 14.159 44.9972 14.273C45.3012 14.387 45.5989 14.444 45.8902 14.444C46.2955 14.444 46.6249 14.3427 46.8782 14.14C47.1315 13.95 47.3595 13.627 47.5622 13.171L47.6002 13.076L43.1732 2.778H46.2322L49.1012 9.713L51.9892 2.778H54.8392ZM62.0907 2.626C63.0407 2.626 63.902 2.84767 64.6747 3.291C65.46 3.72167 66.0743 4.336 66.5177 5.134C66.961 5.91933 67.1827 6.83767 67.1827 7.889C67.1827 8.94033 66.961 9.865 66.5177 10.663C66.0743 11.4483 65.46 12.0627 64.6747 12.506C63.902 12.9367 63.0407 13.152 62.0907 13.152C60.786 13.152 59.76 12.7403 59.0127 11.917V16.686H56.0487V2.778H58.8797V3.956C59.6143 3.06933 60.6847 2.626 62.0907 2.626ZM61.5777 10.72C62.3377 10.72 62.9583 10.4667 63.4397 9.96C63.9337 9.44067 64.1807 8.75033 64.1807 7.889C64.1807 7.02767 63.9337 6.34367 63.4397 5.837C62.9583 5.31767 62.3377 5.058 61.5777 5.058C60.8177 5.058 60.1907 5.31767 59.6967 5.837C59.2153 6.34367 58.9747 7.02767 58.9747 7.889C58.9747 8.75033 59.2153 9.44067 59.6967 9.96C60.1907 10.4667 60.8177 10.72 61.5777 10.72ZM74.0308 13.152C72.9542 13.152 71.9852 12.9303 71.1238 12.487C70.2752 12.031 69.6102 11.404 69.1288 10.606C68.6475 9.808 68.4068 8.90233 68.4068 7.889C68.4068 6.87567 68.6475 5.97 69.1288 5.172C69.6102 4.374 70.2752 3.75333 71.1238 3.31C71.9852 2.854 72.9542 2.626 74.0308 2.626C75.1075 2.626 76.0702 2.854 76.9188 3.31C77.7675 3.75333 78.4325 4.374 78.9138 5.172C79.3952 5.97 79.6358 6.87567 79.6358 7.889C79.6358 8.90233 79.3952 9.808 78.9138 10.606C78.4325 11.404 77.7675 12.031 76.9188 12.487C76.0702 12.9303 75.1075 13.152 74.0308 13.152ZM74.0308 10.72C74.7908 10.72 75.4115 10.4667 75.8928 9.96C76.3868 9.44067 76.6338 8.75033 76.6338 7.889C76.6338 7.02767 76.3868 6.34367 75.8928 5.837C75.4115 5.31767 74.7908 5.058 74.0308 5.058C73.2708 5.058 72.6438 5.31767 72.1498 5.837C71.6558 6.34367 71.4088 7.02767 71.4088 7.889C71.4088 8.75033 71.6558 9.44067 72.1498 9.96C72.6438 10.4667 73.2708 10.72 74.0308 10.72ZM84.448 4.127C84.8027 3.633 85.2777 3.25933 85.873 3.006C86.481 2.75267 87.1777 2.626 87.963 2.626V5.362C87.6337 5.33667 87.412 5.324 87.298 5.324C86.4494 5.324 85.7844 5.56467 85.303 6.046C84.8217 6.51467 84.581 7.224 84.581 8.174V13H81.617V2.778H84.448V4.127ZM96.671 12.506C96.3796 12.7213 96.0186 12.886 95.588 13C95.17 13.1013 94.7266 13.152 94.258 13.152C93.042 13.152 92.0983 12.8417 91.427 12.221C90.7683 11.6003 90.439 10.6883 90.439 9.485V5.286H88.862V3.006H90.439V0.517H93.403V3.006H95.949V5.286H93.403V9.447C93.403 9.87767 93.5106 10.2133 93.726 10.454C93.954 10.682 94.2706 10.796 94.676 10.796C95.1446 10.796 95.5436 10.6693 95.873 10.416L96.671 12.506Z" fill="white"/>
</svg>
